<svg xmlns="http://www.w3.org/2000/svg" viewBox="0 0 860 200" width="860" height="200"><style>.night{display:none}.day{display:block}@media (prefers-color-scheme:dark){.night{display:block}.day{display:none}}</style><g class="day"><defs><style>svg{shape-rendering:auto;}</style><linearGradient id="sky" x1="0%" y1="0%" x2="0%" y2="100%"><stop offset="0%" stop-color="#cfe6f5"/><stop offset="60%" stop-color="#a8d3ec"/><stop offset="100%" stop-color="#7fb8dd"/></linearGradient><filter id="blur" x="-10%" y="-10%" width="120%" height="120%"><feGaussianBlur stdDeviation="0.5"/></filter><filter id="glow"><feGaussianBlur stdDeviation="1.4" result="b"/><feMerge><feMergeNode in="b"/><feMergeNode in="SourceGraphic"/></feMerge></filter></defs><rect width="860" height="200" fill="url(#sky)"/><g opacity="0"><g fill="#ffffff"><circle cx="727.572" cy="122.806" r="0.514" opacity="0.7288816015089163"><animate attributeName="opacity" values="0.327;0.758;0.66" dur="3.164s" begin="-1.948s" repeatCount="indefinite"/></circle><circle cx="686.994" cy="20.2" r="0.614" opacity="0.5467249657064472"><animate attributeName="opacity" values="0.536;0.922;0.411" dur="2.002s" begin="-1.676s" repeatCount="indefinite"/></circle><circle cx="413.499" cy="35.093" r="0.875" opacity="0.8541516632373114"><animate attributeName="opacity" values="0.436;0.93;0.455" dur="2.277s" begin="-1.793s" repeatCount="indefinite"/></circle><circle cx="122.088" cy="77.487" r="0.77" opacity="0.7761616941015089"><animate attributeName="opacity" values="0.528;0.857;0.489" dur="1.74s" begin="-1.248s" repeatCount="indefinite"/></circle><circle cx="27.76" cy="57.38" r="0.476" opacity="0.4377550582990398"><animate attributeName="opacity" values="0.512;0.777;0.616" dur="4.14s" begin="-3.627s" repeatCount="indefinite"/></circle><circle cx="345.515" cy="124.774" r="0.868" opacity="0.463931755829904"><animate attributeName="opacity" values="0.488;0.767;0.534" dur="4.228s" begin="-2.173s" repeatCount="indefinite"/></circle><circle cx="430.354" cy="69.667" r="0.72" opacity="0.4796917866941015"><animate attributeName="opacity" values="0.555;0.9;0.344" dur="2.753s" begin="-2.426s" repeatCount="indefinite"/></circle><circle cx="497.276" cy="42.061" r="0.907" opacity="0.6100351508916324"><animate attributeName="opacity" values="0.414;0.952;0.545" dur="3.465s" begin="-0.788s" repeatCount="indefinite"/></circle><circle cx="761.281" cy="71.954" r="0.905" opacity="0.47996184842249656"><animate attributeName="opacity" values="0.565;0.997;0.439" dur="4.115s" begin="-3.305s" repeatCount="indefinite"/></circle><circle cx="577.37" cy="69.348" r="0.888" opacity="0.7144718792866942"><animate attributeName="opacity" values="0.307;0.811;0.523" dur="2.453s" begin="-2.104s" repeatCount="indefinite"/></circle><circle cx="160.542" cy="64.241" r="1.032" opacity="0.438565243484225"><animate attributeName="opacity" values="0.541;0.769;0.5" dur="2.228s" begin="-1.429s" repeatCount="indefinite"/></circle><circle cx="585.798" cy="86.635" r="0.811" opacity="0.7772419410150893"><animate attributeName="opacity" values="0.566;0.946;0.468" dur="4.191s" begin="-1.695s" repeatCount="indefinite"/></circle><circle cx="348.136" cy="46.528" r="0.4" opacity="0.8555019718792867"><animate attributeName="opacity" values="0.484;0.817;0.528" dur="3.091s" begin="-1.226s" repeatCount="indefinite"/></circle><circle cx="522.558" cy="93.922" r="0.675" opacity="0.7983453360768176"><animate attributeName="opacity" values="0.393;0.756;0.379" dur="2.678s" begin="-2.325s" repeatCount="indefinite"/></circle><circle cx="464.064" cy="18.815" r="0.41" opacity="0.7307720336076817"><animate attributeName="opacity" values="0.393;0.839;0.523" dur="3.704s" begin="-0.254s" repeatCount="indefinite"/></circle><circle cx="387.653" cy="91.209" r="0.481" opacity="0.7777820644718794"><animate attributeName="opacity" values="0.585;0.841;0.657" dur="3.916s" begin="-0.972s" repeatCount="indefinite"/></circle><circle cx="508.325" cy="101.102" r="1.062" opacity="0.5643754286694102"><animate attributeName="opacity" values="0.669;0.837;0.484" dur="4.066s" begin="-2.672s" repeatCount="indefinite"/></circle><circle cx="181.08" cy="78.496" r="0.928" opacity="0.7155521262002744"><animate attributeName="opacity" values="0.345;0.901;0.502" dur="1.904s" begin="-1.038s" repeatCount="indefinite"/></circle><circle cx="480.919" cy="53.389" r="0.955" opacity="0.8563121570644718"><animate attributeName="opacity" values="0.512;0.809;0.412" dur="4.179s" begin="-0.678s" repeatCount="indefinite"/></circle><circle cx="762.841" cy="55.783" r="0.618" opacity="0.6116555212620027"><animate attributeName="opacity" values="0.471;0.936;0.313" dur="2.642s" begin="-2.004s" repeatCount="indefinite"/></circle><circle cx="381.846" cy="115.676" r="0.79" opacity="0.606582218792867"><animate attributeName="opacity" values="0.322;0.756;0.307" dur="4.042s" begin="-2.361s" repeatCount="indefinite"/></circle><circle cx="412.935" cy="23.07" r="0.949" opacity="0.46609224965706453"><animate attributeName="opacity" values="0.564;0.946;0.491" dur="3.129s" begin="-2.781s" repeatCount="indefinite"/></circle><circle cx="211.107" cy="47.963" r="0.567" opacity="0.8151856138545954"><animate attributeName="opacity" values="0.498;0.979;0.568" dur="3.655s" begin="-3.371s" repeatCount="indefinite"/></circle><circle cx="851.362" cy="100.357" r="0.521" opacity="0.7788623113854596"><animate attributeName="opacity" values="0.623;0.931;0.636" dur="3.367s" begin="-3.15s" repeatCount="indefinite"/></circle><circle cx="828.701" cy="90.251" r="0.986" opacity="0.4821223422496571"><animate attributeName="opacity" values="0.64;0.876;0.396" dur="3.017s" begin="-0.536s" repeatCount="indefinite"/></circle><circle cx="358.123" cy="47.644" r="0.735" opacity="0.5499657064471879"><animate attributeName="opacity" values="0.649;0.89;0.347" dur="3.355s" begin="-3.016s" repeatCount="indefinite"/></circle><circle cx="514.629" cy="122.538" r="0.646" opacity="0.6073924039780522"><animate attributeName="opacity" values="0.35;0.749;0.59" dur="2.13s" begin="-0.745s" repeatCount="indefinite"/></circle><circle cx="653.217" cy="104.931" r="0.891" opacity="0.7794024348422497"><animate attributeName="opacity" values="0.642;0.825;0.425" dur="3.093s" begin="-2.41s" repeatCount="indefinite"/></circle><circle cx="128.889" cy="24.825" r="0.947" opacity="0.6909957990397806"><animate attributeName="opacity" values="0.426;0.896;0.352" dur="3.993s" begin="-1.749s" repeatCount="indefinite"/></circle><circle cx="16.645" cy="32.218" r="0.989" opacity="0.46717249657064475"><animate attributeName="opacity" values="0.602;0.735;0.47" dur="2.58s" begin="-1.486s" repeatCount="indefinite"/></circle><circle cx="531.484" cy="37.112" r="0.491" opacity="0.7329325274348423"><animate attributeName="opacity" values="0.469;0.718;0.48" dur="2.605s" begin="-1.155s" repeatCount="indefinite"/></circle><circle cx="168.406" cy="69.505" r="1.028" opacity="0.6132758916323732"><animate attributeName="opacity" values="0.528;0.92;0.481" dur="1.818s" begin="-0.526s" repeatCount="indefinite"/></circle><circle cx="2.411" cy="39.399" r="0.676" opacity="0.7332025891632373"><animate attributeName="opacity" values="0.478;0.816;0.574" dur="3.968s" begin="-1.449s" repeatCount="indefinite"/></circle><circle cx="248.5" cy="96.792" r="1.009" opacity="0.7177126200274349"><animate attributeName="opacity" values="0.421;0.78;0.459" dur="3.806s" begin="-3.5s" repeatCount="indefinite"/></circle><circle cx="261.672" cy="31.686" r="0.803" opacity="0.6918059842249658"><animate attributeName="opacity" values="0.454;0.888;0.636" dur="2.081s" begin="-0.424s" repeatCount="indefinite"/></circle><circle cx="256.927" cy="114.079" r="0.932" opacity="0.7804826817558299"><animate attributeName="opacity" values="0.68;0.915;0.404" dur="2.544s" begin="-1.187s" repeatCount="indefinite"/></circle><circle cx="449.266" cy="13.973" r="0.871" opacity="0.6087427126200274"><animate attributeName="opacity" values="0.397;0.935;0.664" dur="2.944s" begin="-2.822s" repeatCount="indefinite"/></circle><circle cx="193.688" cy="121.366" r="0.796" opacity="0.8015860768175583"><animate attributeName="opacity" values="0.506;0.725;0.315" dur="4.031s" begin="-3.749s" repeatCount="indefinite"/></circle><circle cx="565.193" cy="106.26" r="0.881" opacity="0.4840127743484225"><animate attributeName="opacity" values="0.307;0.958;0.658" dur="3.556s" begin="-2.243s" repeatCount="indefinite"/></circle><circle cx="58.782" cy="118.653" r="0.602" opacity="0.78102280521262"><animate attributeName="opacity" values="0.699;0.81;0.593" dur="2.269s" begin="-0.704s" repeatCount="indefinite"/></circle><circle cx="609.454" cy="68.547" r="0.833" opacity="0.8176161694101509"><animate attributeName="opacity" values="0.583;0.955;0.62" dur="3.919s" begin="-0.859s" repeatCount="indefinite"/></circle><circle cx="712.21" cy="105.94" r="1.05" opacity="0.7187928669410151"><animate attributeName="opacity" values="0.458;0.87;0.438" dur="3.257s" begin="-1.977s" repeatCount="indefinite"/></circle><circle cx="582.048" cy="20.834" r="0.727" opacity="0.6095528978052126"><animate attributeName="opacity" values="0.426;0.928;0.548" dur="4.032s" begin="-2.92s" repeatCount="indefinite"/></circle><circle cx="433.97" cy="83.227" r="0.739" opacity="0.6148962620027435"><animate attributeName="opacity" values="0.585;0.904;0.649" dur="3.994s" begin="-3.278s" repeatCount="indefinite"/></circle><circle cx="482.976" cy="83.121" r="0.562" opacity="0.8598229595336078"><animate attributeName="opacity" values="0.635;0.875;0.442" dur="3.895s" begin="-0.569s" repeatCount="indefinite"/></circle><circle cx="84.065" cy="50.514" r="1.07" opacity="0.46933299039780524"><animate attributeName="opacity" values="0.677;0.914;0.427" dur="4.482s" begin="-4.261s" repeatCount="indefinite"/></circle><circle cx="312.237" cy="15.408" r="1.038" opacity="0.5684263545953361"><animate attributeName="opacity" values="0.411;0.797;0.304" dur="3.507s" begin="-1.7s" repeatCount="indefinite"/></circle><circle cx="522.492" cy="7.801" r="0.642" opacity="0.7821030521262002"><animate attributeName="opacity" values="0.337;0.899;0.572" dur="1.72s" begin="-1.716s" repeatCount="indefinite"/></circle><circle cx="69.831" cy="57.695" r="0.757" opacity="0.7353630829903979"><animate attributeName="opacity" values="0.554;0.995;0.532" dur="2.87s" begin="-2.123s" repeatCount="indefinite"/></circle><circle cx="29.253" cy="75.088" r="0.857" opacity="0.5532064471879287"><animate attributeName="opacity" values="0.363;0.859;0.683" dur="1.708s" begin="-1.641s" repeatCount="indefinite"/></circle><circle cx="615.758" cy="89.982" r="0.417" opacity="0.8606331447187929"><animate attributeName="opacity" values="0.664;0.867;0.326" dur="1.983s" begin="-1.807s" repeatCount="indefinite"/></circle><circle cx="324.347" cy="12.376" r="1.013" opacity="0.7826431755829903"><animate attributeName="opacity" values="0.356;0.794;0.361" dur="4.445s" begin="-3.74s" repeatCount="indefinite"/></circle><circle cx="230.019" cy="112.269" r="0.719" opacity="0.4442365397805213"><animate attributeName="opacity" values="0.34;0.715;0.488" dur="3.845s" begin="0s" repeatCount="indefinite"/></circle><circle cx="547.774" cy="59.663" r="0.41" opacity="0.4704132373113855"><animate attributeName="opacity" values="0.315;0.704;0.406" dur="3.933s" begin="-2.51s" repeatCount="indefinite"/></circle><circle cx="632.613" cy="124.556" r="0.962" opacity="0.48617326817558304"><animate attributeName="opacity" values="0.383;0.837;0.616" dur="2.458s" begin="-0.013s" repeatCount="indefinite"/></circle><circle cx="699.535" cy="96.95" r="0.449" opacity="0.6165166323731139"><animate attributeName="opacity" values="0.641;0.889;0.417" dur="3.171s" begin="-1.115s" repeatCount="indefinite"/></circle><circle cx="103.541" cy="6.843" r="0.447" opacity="0.4864433299039781"><animate attributeName="opacity" values="0.392;0.934;0.31" dur="3.821s" begin="-3.542s" repeatCount="indefinite"/></circle><circle cx="779.629" cy="124.237" r="0.43" opacity="0.7209533607681756"><animate attributeName="opacity" values="0.534;0.749;0.395" dur="2.159s" begin="-2.119s" repeatCount="indefinite"/></circle><circle cx="362.801" cy="119.13" r="0.574" opacity="0.44504672496570646"><animate attributeName="opacity" values="0.368;0.707;0.372" dur="1.934s" begin="-1.48s" repeatCount="indefinite"/></circle><circle cx="788.057" cy="21.524" r="1.053" opacity="0.7837234224965707"><animate attributeName="opacity" values="0.394;0.883;0.34" dur="3.896s" begin="-2.06s" repeatCount="indefinite"/></circle></g></g><g><circle cx="0" cy="35" r="18" fill="#fff7c2" opacity="0.35" filter="url(#blur)"><animate attributeName="cx" from="-30" to="890" dur="60s" repeatCount="indefinite"/></circle><circle cx="0" cy="35" r="12" fill="#fff7c2"><animate attributeName="cx" from="-30" to="890" dur="60s" repeatCount="indefinite"/></circle></g><g><rect x="676.83" y="159.429" width="13.536" height="15.571" fill="#9eb1c4"/><line x1="690.366" y1="159.429" x2="690.366" y2="175" stroke="#3e5266" stroke-width="0.4" opacity="0.6"/></g><g><rect x="724.604" y="134.429" width="13.536" height="40.571" fill="#7e95ad"/><line x1="738.14" y1="134.429" x2="738.14" y2="175" stroke="#3e5266" stroke-width="0.4" opacity="0.6"/><rect x="726.938" y="138.429" width="1.4" height="1.6" fill="#15212e"></rect><rect x="730.672" y="138.429" width="1.4" height="1.6" fill="#15212e"></rect><rect x="734.406" y="138.429" width="1.4" height="1.6" fill="#28394d"></rect><rect x="726.938" y="143.029" width="1.4" height="1.6" fill="#28394d"></rect><rect x="730.672" y="143.029" width="1.4" height="1.6" fill="#28394d"></rect><rect x="734.406" y="143.029" width="1.4" height="1.6" fill="#0d1620"></rect><rect x="726.938" y="147.629" width="1.4" height="1.6" fill="#5a738c" opacity="0.5"/><rect x="730.672" y="147.629" width="1.4" height="1.6" fill="#5a738c" opacity="0.5"/><rect x="734.406" y="147.629" width="1.4" height="1.6" fill="#5a738c" opacity="0.5"/><rect x="734.406" y="147.629" width="1.4" height="1.6" fill="#15212e" opacity="0"><animate attributeName="opacity" values="0;1;1;0" keyTimes="0;0.05;0.95;1" dur="39.328s" begin="20.172s;80.172s" fill="freeze"/></rect><rect x="726.938" y="152.229" width="1.4" height="1.6" fill="#5a738c" opacity="0.5"/><rect x="730.672" y="152.229" width="1.4" height="1.6" fill="#28394d"></rect><rect x="734.406" y="152.229" width="1.4" height="1.6" fill="#0d1620"></rect><rect x="726.938" y="156.829" width="1.4" height="1.6" fill="#28394d"><animate attributeName="opacity" values="1;1;0;0;1;1" keyTimes="0;0.5;0.51;0.55;0.56;1" dur="3.024s" begin="-1.535s" repeatCount="indefinite"/></rect><rect x="730.672" y="156.829" width="1.4" height="1.6" fill="#28394d"></rect><rect x="734.406" y="156.829" width="1.4" height="1.6" fill="#5a738c" opacity="0.5"/><rect x="734.406" y="156.829" width="1.4" height="1.6" fill="#15212e" opacity="0"><animate attributeName="opacity" values="0;1;1;0" keyTimes="0;0.05;0.95;1" dur="39.537s" begin="19.963s;79.963s" fill="freeze"/></rect><rect x="726.938" y="161.429" width="1.4" height="1.6" fill="#0d1620"></rect><rect x="730.672" y="161.429" width="1.4" height="1.6" fill="#28394d"></rect><rect x="734.406" y="161.429" width="1.4" height="1.6" fill="#5a738c" opacity="0.5"/><rect x="726.938" y="166.029" width="1.4" height="1.6" fill="#0d1620"></rect><rect x="730.672" y="166.029" width="1.4" height="1.6" fill="#0d1620"></rect><rect x="734.406" y="166.029" width="1.4" height="1.6" fill="#5a738c" opacity="0.5"/><rect x="772.377" y="155.857" width="13.536" height="19.143" fill="#7e95ad"/><line x1="785.913" y1="155.857" x2="785.913" y2="175" stroke="#3e5266" stroke-width="0.4" opacity="0.6"/><rect x="774.711" y="159.857" width="1.4" height="1.6" fill="#5a738c" opacity="0.5"/><rect x="778.445" y="159.857" width="1.4" height="1.6" fill="#5a738c" opacity="0.5"/><rect x="782.179" y="159.857" width="1.4" height="1.6" fill="#5a738c" opacity="0.5"/><rect x="774.711" y="164.457" width="1.4" height="1.6" fill="#5a738c" opacity="0.5"/><rect x="778.445" y="164.457" width="1.4" height="1.6" fill="#0d1620"></rect><rect x="782.179" y="164.457" width="1.4" height="1.6" fill="#5a738c" opacity="0.5"/><rect x="820.151" y="155.857" width="13.536" height="19.143" fill="#7e95ad"/><line x1="833.687" y1="155.857" x2="833.687" y2="175" stroke="#3e5266" stroke-width="0.4" opacity="0.6"/><rect x="822.485" y="159.857" width="1.4" height="1.6" fill="#5a738c" opacity="0.5"/><rect x="826.219" y="159.857" width="1.4" height="1.6" fill="#0d1620"></rect><rect x="829.953" y="159.857" width="1.4" height="1.6" fill="#5a738c" opacity="0.5"/><rect x="822.485" y="164.457" width="1.4" height="1.6" fill="#5a738c" opacity="0.5"/><rect x="826.219" y="164.457" width="1.4" height="1.6" fill="#5a738c" opacity="0.5"/><rect x="829.953" y="164.457" width="1.4" height="1.6" fill="#0d1620"></rect></g><g><rect x="692.755" y="159.429" width="14.332" height="15.571" fill="#5a738c"/><line x1="707.087" y1="159.429" x2="707.087" y2="175" stroke="#3e5266" stroke-width="0.4" opacity="0.6"/><rect x="740.528" y="127.286" width="14.332" height="47.714" fill="#5a738c"/><line x1="754.86" y1="127.286" x2="754.86" y2="175" stroke="#3e5266" stroke-width="0.4" opacity="0.6"/><rect x="744.111" y="123.286" width="7.166" height="4" fill="#5a738c"/><rect x="742.761" y="131.286" width="1.8" height="2" fill="#0d1620"></rect><rect x="746.794" y="131.286" width="1.8" height="2" fill="#0d1620"></rect><rect x="750.827" y="131.286" width="1.8" height="2" fill="#5a738c" opacity="0.5"/><rect x="742.761" y="136.286" width="1.8" height="2" fill="#0d1620"></rect><rect x="746.794" y="136.286" width="1.8" height="2" fill="#15212e"></rect><rect x="750.827" y="136.286" width="1.8" height="2" fill="#5a738c" opacity="0.5"/><rect x="742.761" y="141.286" width="1.8" height="2" fill="#5a738c" opacity="0.5"/><rect x="746.794" y="141.286" width="1.8" height="2" fill="#5a738c" opacity="0.5"/><rect x="750.827" y="141.286" width="1.8" height="2" fill="#15212e"></rect><rect x="742.761" y="146.286" width="1.8" height="2" fill="#15212e"></rect><rect x="746.794" y="146.286" width="1.8" height="2" fill="#5a738c" opacity="0.5"/><rect x="750.827" y="146.286" width="1.8" height="2" fill="#5a738c" opacity="0.5"/><rect x="742.761" y="151.286" width="1.8" height="2" fill="#0d1620"></rect><rect x="746.794" y="151.286" width="1.8" height="2" fill="#0d1620"><animate attributeName="opacity" values="1;1;0;0;1;1" keyTimes="0;0.5;0.51;0.55;0.56;1" dur="3.414s" begin="-2.695s" repeatCount="indefinite"/></rect><rect x="750.827" y="151.286" width="1.8" height="2" fill="#15212e"></rect><rect x="742.761" y="156.286" width="1.8" height="2" fill="#5a738c" opacity="0.5"/><rect x="746.794" y="156.286" width="1.8" height="2" fill="#5a738c" opacity="0.5"/><rect x="750.827" y="156.286" width="1.8" height="2" fill="#5a738c" opacity="0.5"/><rect x="742.761" y="161.286" width="1.8" height="2" fill="#5a738c" opacity="0.5"/><rect x="746.794" y="161.286" width="1.8" height="2" fill="#0d1620"></rect><rect x="750.827" y="161.286" width="1.8" height="2" fill="#5a738c" opacity="0.5"/><rect x="742.761" y="166.286" width="1.8" height="2" fill="#5a738c" opacity="0.5"/><rect x="746.794" y="166.286" width="1.8" height="2" fill="#28394d"></rect><rect x="750.827" y="166.286" width="1.8" height="2" fill="#5a738c" opacity="0.5"/><rect x="750.827" y="166.286" width="1.8" height="2" fill="#15212e" opacity="0"><animate attributeName="opacity" values="0;1;1;0" keyTimes="0;0.05;0.95;1" dur="47.438s" begin="12.062s;72.062s" fill="freeze"/></rect><rect x="756.453" y="141.571" width="14.332" height="33.429" fill="#5a738c"/><line x1="770.785" y1="141.571" x2="770.785" y2="175" stroke="#3e5266" stroke-width="0.4" opacity="0.6"/><rect x="758.686" y="145.571" width="1.8" height="2" fill="#5a738c" opacity="0.5"/><rect x="762.719" y="145.571" width="1.8" height="2" fill="#5a738c" opacity="0.5"/><rect x="766.752" y="145.571" width="1.8" height="2" fill="#0d1620"></rect><rect x="758.686" y="150.571" width="1.8" height="2" fill="#5a738c" opacity="0.5"/><rect x="762.719" y="150.571" width="1.8" height="2" fill="#0d1620"><animate attributeName="opacity" values="1;1;0;0;1;1" keyTimes="0;0.5;0.51;0.55;0.56;1" dur="3.534s" begin="-3.491s" repeatCount="indefinite"/></rect><rect x="766.752" y="150.571" width="1.8" height="2" fill="#5a738c" opacity="0.5"/><rect x="758.686" y="155.571" width="1.8" height="2" fill="#5a738c" opacity="0.5"/><rect x="762.719" y="155.571" width="1.8" height="2" fill="#5a738c" opacity="0.5"/><rect x="766.752" y="155.571" width="1.8" height="2" fill="#15212e"></rect><rect x="758.686" y="160.571" width="1.8" height="2" fill="#28394d"></rect><rect x="762.719" y="160.571" width="1.8" height="2" fill="#0d1620"></rect><rect x="766.752" y="160.571" width="1.8" height="2" fill="#15212e"></rect><rect x="758.686" y="165.571" width="1.8" height="2" fill="#5a738c" opacity="0.5"/><rect x="762.719" y="165.571" width="1.8" height="2" fill="#5a738c" opacity="0.5"/><rect x="766.752" y="165.571" width="1.8" height="2" fill="#28394d"></rect><rect x="804.226" y="155.857" width="14.332" height="19.143" fill="#5a738c"/><line x1="818.558" y1="155.857" x2="818.558" y2="175" stroke="#3e5266" stroke-width="0.4" opacity="0.6"/><rect x="806.459" y="159.857" width="1.8" height="2" fill="#5a738c" opacity="0.5"/><rect x="806.459" y="159.857" width="1.8" height="2" fill="#15212e" opacity="0"><animate attributeName="opacity" values="0;1;1;0" keyTimes="0;0.05;0.95;1" dur="45.99s" begin="13.51s;73.51s" fill="freeze"/></rect><rect x="810.492" y="159.857" width="1.8" height="2" fill="#5a738c" opacity="0.5"/><rect x="814.525" y="159.857" width="1.8" height="2" fill="#15212e"></rect><rect x="806.459" y="164.857" width="1.8" height="2" fill="#5a738c" opacity="0.5"/><rect x="810.492" y="164.857" width="1.8" height="2" fill="#5a738c" opacity="0.5"/><rect x="814.525" y="164.857" width="1.8" height="2" fill="#5a738c" opacity="0.5"/><rect x="814.525" y="164.857" width="1.8" height="2" fill="#15212e" opacity="0"><animate attributeName="opacity" values="0;1;1;0" keyTimes="0;0.05;0.95;1" dur="17.362s" begin="42.138s;102.138s" fill="freeze"/></rect><rect x="836.075" y="159.429" width="14.332" height="15.571" fill="#5a738c"/><line x1="850.408" y1="159.429" x2="850.408" y2="175" stroke="#3e5266" stroke-width="0.4" opacity="0.6"/></g><g></g><g stroke="#5a6470" stroke-width="1" fill="none" opacity="0.65"><g><animateTransform attributeName="transform" type="translate" from="-30 0" to="890 -10" dur="14s" begin="0s" repeatCount="indefinite"/><path d="M0 50 l3 -2 l3 2 M6 50 l3 -2 l3 2"><animate attributeName="d" values="M0 50 l3 -2 l3 2 M6 50 l3 -2 l3 2;M0 50 l3 1 l3 -1 M6 50 l3 1 l3 -1;M0 50 l3 -2 l3 2 M6 50 l3 -2 l3 2" dur="0.5s" repeatCount="indefinite"/></path></g><g><animateTransform attributeName="transform" type="translate" from="-30 0" to="890 5" dur="17s" begin="-4s" repeatCount="indefinite"/><path d="M0 62 l3 -2 l3 2 M6 62 l3 -2 l3 2"><animate attributeName="d" values="M0 62 l3 -2 l3 2 M6 62 l3 -2 l3 2;M0 62 l3 1 l3 -1 M6 62 l3 1 l3 -1;M0 62 l3 -2 l3 2 M6 62 l3 -2 l3 2" dur="0.5s" repeatCount="indefinite"/></path></g><g><animateTransform attributeName="transform" type="translate" from="-30 0" to="890 -10" dur="20s" begin="-8s" repeatCount="indefinite"/><path d="M0 74 l3 -2 l3 2 M6 74 l3 -2 l3 2"><animate attributeName="d" values="M0 74 l3 -2 l3 2 M6 74 l3 -2 l3 2;M0 74 l3 1 l3 -1 M6 74 l3 1 l3 -1;M0 74 l3 -2 l3 2 M6 74 l3 -2 l3 2" dur="0.5s" repeatCount="indefinite"/></path></g></g><rect x="0" y="175" width="860" height="25" fill="#d8e0e8"/><line x1="0" y1="175" x2="860" y2="175" stroke="#3e5266" stroke-width="0.5" opacity="0.5"/><g font-size="9" letter-spacing="2"><text x="14" y="18" fill="#1f2328" font-weight="900" letter-spacing="3">CITY OF COMMITS</text><text x="14" y="30" fill="#5a6470" font-size="7" letter-spacing="2">— github-contrib-runner —</text></g><g font-size="7" letter-spacing="1.5" font-family="ui-monospace,Menlo,monospace"><text x="846" y="18" text-anchor="end" fill="#1f2328" font-size="9" font-weight="700" letter-spacing="2">EST. 2025</text><text x="846" y="30" text-anchor="end" fill="#5a6470">pop. 11223</text><text x="14" y="192" fill="#5a6470">▲ TALLEST 10 commits</text><text x="430" y="192" text-anchor="middle" fill="#5a6470">⌂ 9 buildings</text><text x="846" y="192" text-anchor="end" fill="#5a6470">Σ 33 contributions</text></g></g><g class="night"><defs><style>svg{shape-rendering:auto;}</style><linearGradient id="sky" x1="0%" y1="0%" x2="0%" y2="100%"><stop offset="0%" stop-color="#0a1428"/><stop offset="60%" stop-color="#1a2540"/><stop offset="100%" stop-color="#3d2f5a"/></linearGradient><filter id="blur" x="-10%" y="-10%" width="120%" height="120%"><feGaussianBlur stdDeviation="0.5"/></filter><filter id="glow"><feGaussianBlur stdDeviation="1.4" result="b"/><feMerge><feMergeNode in="b"/><feMergeNode in="SourceGraphic"/></feMerge></filter></defs><rect width="860" height="200" fill="url(#sky)"/><g opacity="1"><g fill="#fff5c6"><circle cx="727.572" cy="122.806" r="0.514" opacity="0.7288816015089163"><animate attributeName="opacity" values="0.327;0.758;0.66" dur="3.164s" begin="-1.948s" repeatCount="indefinite"/></circle><circle cx="686.994" cy="20.2" r="0.614" opacity="0.5467249657064472"><animate attributeName="opacity" values="0.536;0.922;0.411" dur="2.002s" begin="-1.676s" repeatCount="indefinite"/></circle><circle cx="413.499" cy="35.093" r="0.875" opacity="0.8541516632373114"><animate attributeName="opacity" values="0.436;0.93;0.455" dur="2.277s" begin="-1.793s" repeatCount="indefinite"/></circle><circle cx="122.088" cy="77.487" r="0.77" opacity="0.7761616941015089"><animate attributeName="opacity" values="0.528;0.857;0.489" dur="1.74s" begin="-1.248s" repeatCount="indefinite"/></circle><circle cx="27.76" cy="57.38" r="0.476" opacity="0.4377550582990398"><animate attributeName="opacity" values="0.512;0.777;0.616" dur="4.14s" begin="-3.627s" repeatCount="indefinite"/></circle><circle cx="345.515" cy="124.774" r="0.868" opacity="0.463931755829904"><animate attributeName="opacity" values="0.488;0.767;0.534" dur="4.228s" begin="-2.173s" repeatCount="indefinite"/></circle><circle cx="430.354" cy="69.667" r="0.72" opacity="0.4796917866941015"><animate attributeName="opacity" values="0.555;0.9;0.344" dur="2.753s" begin="-2.426s" repeatCount="indefinite"/></circle><circle cx="497.276" cy="42.061" r="0.907" opacity="0.6100351508916324"><animate attributeName="opacity" values="0.414;0.952;0.545" dur="3.465s" begin="-0.788s" repeatCount="indefinite"/></circle><circle cx="761.281" cy="71.954" r="0.905" opacity="0.47996184842249656"><animate attributeName="opacity" values="0.565;0.997;0.439" dur="4.115s" begin="-3.305s" repeatCount="indefinite"/></circle><circle cx="577.37" cy="69.348" r="0.888" opacity="0.7144718792866942"><animate attributeName="opacity" values="0.307;0.811;0.523" dur="2.453s" begin="-2.104s" repeatCount="indefinite"/></circle><circle cx="160.542" cy="64.241" r="1.032" opacity="0.438565243484225"><animate attributeName="opacity" values="0.541;0.769;0.5" dur="2.228s" begin="-1.429s" repeatCount="indefinite"/></circle><circle cx="585.798" cy="86.635" r="0.811" opacity="0.7772419410150893"><animate attributeName="opacity" values="0.566;0.946;0.468" dur="4.191s" begin="-1.695s" repeatCount="indefinite"/></circle><circle cx="348.136" cy="46.528" r="0.4" opacity="0.8555019718792867"><animate attributeName="opacity" values="0.484;0.817;0.528" dur="3.091s" begin="-1.226s" repeatCount="indefinite"/></circle><circle cx="522.558" cy="93.922" r="0.675" opacity="0.7983453360768176"><animate attributeName="opacity" values="0.393;0.756;0.379" dur="2.678s" begin="-2.325s" repeatCount="indefinite"/></circle><circle cx="464.064" cy="18.815" r="0.41" opacity="0.7307720336076817"><animate attributeName="opacity" values="0.393;0.839;0.523" dur="3.704s" begin="-0.254s" repeatCount="indefinite"/></circle><circle cx="387.653" cy="91.209" r="0.481" opacity="0.7777820644718794"><animate attributeName="opacity" values="0.585;0.841;0.657" dur="3.916s" begin="-0.972s" repeatCount="indefinite"/></circle><circle cx="508.325" cy="101.102" r="1.062" opacity="0.5643754286694102"><animate attributeName="opacity" values="0.669;0.837;0.484" dur="4.066s" begin="-2.672s" repeatCount="indefinite"/></circle><circle cx="181.08" cy="78.496" r="0.928" opacity="0.7155521262002744"><animate attributeName="opacity" values="0.345;0.901;0.502" dur="1.904s" begin="-1.038s" repeatCount="indefinite"/></circle><circle cx="480.919" cy="53.389" r="0.955" opacity="0.8563121570644718"><animate attributeName="opacity" values="0.512;0.809;0.412" dur="4.179s" begin="-0.678s" repeatCount="indefinite"/></circle><circle cx="762.841" cy="55.783" r="0.618" opacity="0.6116555212620027"><animate attributeName="opacity" values="0.471;0.936;0.313" dur="2.642s" begin="-2.004s" repeatCount="indefinite"/></circle><circle cx="381.846" cy="115.676" r="0.79" opacity="0.606582218792867"><animate attributeName="opacity" values="0.322;0.756;0.307" dur="4.042s" begin="-2.361s" repeatCount="indefinite"/></circle><circle cx="412.935" cy="23.07" r="0.949" opacity="0.46609224965706453"><animate attributeName="opacity" values="0.564;0.946;0.491" dur="3.129s" begin="-2.781s" repeatCount="indefinite"/></circle><circle cx="211.107" cy="47.963" r="0.567" opacity="0.8151856138545954"><animate attributeName="opacity" values="0.498;0.979;0.568" dur="3.655s" begin="-3.371s" repeatCount="indefinite"/></circle><circle cx="851.362" cy="100.357" r="0.521" opacity="0.7788623113854596"><animate attributeName="opacity" values="0.623;0.931;0.636" dur="3.367s" begin="-3.15s" repeatCount="indefinite"/></circle><circle cx="828.701" cy="90.251" r="0.986" opacity="0.4821223422496571"><animate attributeName="opacity" values="0.64;0.876;0.396" dur="3.017s" begin="-0.536s" repeatCount="indefinite"/></circle><circle cx="358.123" cy="47.644" r="0.735" opacity="0.5499657064471879"><animate attributeName="opacity" values="0.649;0.89;0.347" dur="3.355s" begin="-3.016s" repeatCount="indefinite"/></circle><circle cx="514.629" cy="122.538" r="0.646" opacity="0.6073924039780522"><animate attributeName="opacity" values="0.35;0.749;0.59" dur="2.13s" begin="-0.745s" repeatCount="indefinite"/></circle><circle cx="653.217" cy="104.931" r="0.891" opacity="0.7794024348422497"><animate attributeName="opacity" values="0.642;0.825;0.425" dur="3.093s" begin="-2.41s" repeatCount="indefinite"/></circle><circle cx="128.889" cy="24.825" r="0.947" opacity="0.6909957990397806"><animate attributeName="opacity" values="0.426;0.896;0.352" dur="3.993s" begin="-1.749s" repeatCount="indefinite"/></circle><circle cx="16.645" cy="32.218" r="0.989" opacity="0.46717249657064475"><animate attributeName="opacity" values="0.602;0.735;0.47" dur="2.58s" begin="-1.486s" repeatCount="indefinite"/></circle><circle cx="531.484" cy="37.112" r="0.491" opacity="0.7329325274348423"><animate attributeName="opacity" values="0.469;0.718;0.48" dur="2.605s" begin="-1.155s" repeatCount="indefinite"/></circle><circle cx="168.406" cy="69.505" r="1.028" opacity="0.6132758916323732"><animate attributeName="opacity" values="0.528;0.92;0.481" dur="1.818s" begin="-0.526s" repeatCount="indefinite"/></circle><circle cx="2.411" cy="39.399" r="0.676" opacity="0.7332025891632373"><animate attributeName="opacity" values="0.478;0.816;0.574" dur="3.968s" begin="-1.449s" repeatCount="indefinite"/></circle><circle cx="248.5" cy="96.792" r="1.009" opacity="0.7177126200274349"><animate attributeName="opacity" values="0.421;0.78;0.459" dur="3.806s" begin="-3.5s" repeatCount="indefinite"/></circle><circle cx="261.672" cy="31.686" r="0.803" opacity="0.6918059842249658"><animate attributeName="opacity" values="0.454;0.888;0.636" dur="2.081s" begin="-0.424s" repeatCount="indefinite"/></circle><circle cx="256.927" cy="114.079" r="0.932" opacity="0.7804826817558299"><animate attributeName="opacity" values="0.68;0.915;0.404" dur="2.544s" begin="-1.187s" repeatCount="indefinite"/></circle><circle cx="449.266" cy="13.973" r="0.871" opacity="0.6087427126200274"><animate attributeName="opacity" values="0.397;0.935;0.664" dur="2.944s" begin="-2.822s" repeatCount="indefinite"/></circle><circle cx="193.688" cy="121.366" r="0.796" opacity="0.8015860768175583"><animate attributeName="opacity" values="0.506;0.725;0.315" dur="4.031s" begin="-3.749s" repeatCount="indefinite"/></circle><circle cx="565.193" cy="106.26" r="0.881" opacity="0.4840127743484225"><animate attributeName="opacity" values="0.307;0.958;0.658" dur="3.556s" begin="-2.243s" repeatCount="indefinite"/></circle><circle cx="58.782" cy="118.653" r="0.602" opacity="0.78102280521262"><animate attributeName="opacity" values="0.699;0.81;0.593" dur="2.269s" begin="-0.704s" repeatCount="indefinite"/></circle><circle cx="609.454" cy="68.547" r="0.833" opacity="0.8176161694101509"><animate attributeName="opacity" values="0.583;0.955;0.62" dur="3.919s" begin="-0.859s" repeatCount="indefinite"/></circle><circle cx="712.21" cy="105.94" r="1.05" opacity="0.7187928669410151"><animate attributeName="opacity" values="0.458;0.87;0.438" dur="3.257s" begin="-1.977s" repeatCount="indefinite"/></circle><circle cx="582.048" cy="20.834" r="0.727" opacity="0.6095528978052126"><animate attributeName="opacity" values="0.426;0.928;0.548" dur="4.032s" begin="-2.92s" repeatCount="indefinite"/></circle><circle cx="433.97" cy="83.227" r="0.739" opacity="0.6148962620027435"><animate attributeName="opacity" values="0.585;0.904;0.649" dur="3.994s" begin="-3.278s" repeatCount="indefinite"/></circle><circle cx="482.976" cy="83.121" r="0.562" opacity="0.8598229595336078"><animate attributeName="opacity" values="0.635;0.875;0.442" dur="3.895s" begin="-0.569s" repeatCount="indefinite"/></circle><circle cx="84.065" cy="50.514" r="1.07" opacity="0.46933299039780524"><animate attributeName="opacity" values="0.677;0.914;0.427" dur="4.482s" begin="-4.261s" repeatCount="indefinite"/></circle><circle cx="312.237" cy="15.408" r="1.038" opacity="0.5684263545953361"><animate attributeName="opacity" values="0.411;0.797;0.304" dur="3.507s" begin="-1.7s" repeatCount="indefinite"/></circle><circle cx="522.492" cy="7.801" r="0.642" opacity="0.7821030521262002"><animate attributeName="opacity" values="0.337;0.899;0.572" dur="1.72s" begin="-1.716s" repeatCount="indefinite"/></circle><circle cx="69.831" cy="57.695" r="0.757" opacity="0.7353630829903979"><animate attributeName="opacity" values="0.554;0.995;0.532" dur="2.87s" begin="-2.123s" repeatCount="indefinite"/></circle><circle cx="29.253" cy="75.088" r="0.857" opacity="0.5532064471879287"><animate attributeName="opacity" values="0.363;0.859;0.683" dur="1.708s" begin="-1.641s" repeatCount="indefinite"/></circle><circle cx="615.758" cy="89.982" r="0.417" opacity="0.8606331447187929"><animate attributeName="opacity" values="0.664;0.867;0.326" dur="1.983s" begin="-1.807s" repeatCount="indefinite"/></circle><circle cx="324.347" cy="12.376" r="1.013" opacity="0.7826431755829903"><animate attributeName="opacity" values="0.356;0.794;0.361" dur="4.445s" begin="-3.74s" repeatCount="indefinite"/></circle><circle cx="230.019" cy="112.269" r="0.719" opacity="0.4442365397805213"><animate attributeName="opacity" values="0.34;0.715;0.488" dur="3.845s" begin="0s" repeatCount="indefinite"/></circle><circle cx="547.774" cy="59.663" r="0.41" opacity="0.4704132373113855"><animate attributeName="opacity" values="0.315;0.704;0.406" dur="3.933s" begin="-2.51s" repeatCount="indefinite"/></circle><circle cx="632.613" cy="124.556" r="0.962" opacity="0.48617326817558304"><animate attributeName="opacity" values="0.383;0.837;0.616" dur="2.458s" begin="-0.013s" repeatCount="indefinite"/></circle><circle cx="699.535" cy="96.95" r="0.449" opacity="0.6165166323731139"><animate attributeName="opacity" values="0.641;0.889;0.417" dur="3.171s" begin="-1.115s" repeatCount="indefinite"/></circle><circle cx="103.541" cy="6.843" r="0.447" opacity="0.4864433299039781"><animate attributeName="opacity" values="0.392;0.934;0.31" dur="3.821s" begin="-3.542s" repeatCount="indefinite"/></circle><circle cx="779.629" cy="124.237" r="0.43" opacity="0.7209533607681756"><animate attributeName="opacity" values="0.534;0.749;0.395" dur="2.159s" begin="-2.119s" repeatCount="indefinite"/></circle><circle cx="362.801" cy="119.13" r="0.574" opacity="0.44504672496570646"><animate attributeName="opacity" values="0.368;0.707;0.372" dur="1.934s" begin="-1.48s" repeatCount="indefinite"/></circle><circle cx="788.057" cy="21.524" r="1.053" opacity="0.7837234224965707"><animate attributeName="opacity" values="0.394;0.883;0.34" dur="3.896s" begin="-2.06s" repeatCount="indefinite"/></circle></g></g><g><circle cx="0" cy="35" r="18" fill="#fff5c6" opacity="0.18" filter="url(#blur)"><animate attributeName="cx" from="-30" to="890" dur="60s" repeatCount="indefinite"/></circle><circle cx="0" cy="35" r="12" fill="#fff5c6"><animate attributeName="cx" from="-30" to="890" dur="60s" repeatCount="indefinite"/></circle><circle cx="-4" cy="32" r="2.5" fill="#dcd2a0" opacity="0.5"><animate attributeName="cx" from="-34" to="886" dur="60s" repeatCount="indefinite"/></circle><circle cx="3" cy="39" r="1.8" fill="#dcd2a0" opacity="0.5"><animate attributeName="cx" from="-27" to="893" dur="60s" repeatCount="indefinite"/></circle></g><g><rect x="676.83" y="159.429" width="13.536" height="15.571" fill="#1a2540"/><line x1="690.366" y1="159.429" x2="690.366" y2="175" stroke="#3d4a6a" stroke-width="0.4" opacity="0.6"/></g><g><rect x="724.604" y="134.429" width="13.536" height="40.571" fill="#0e1830"/><line x1="738.14" y1="134.429" x2="738.14" y2="175" stroke="#3d4a6a" stroke-width="0.4" opacity="0.6"/><rect x="726.938" y="138.429" width="1.4" height="1.6" fill="#ffd47a"></rect><rect x="730.672" y="138.429" width="1.4" height="1.6" fill="#ffd47a"></rect><rect x="734.406" y="138.429" width="1.4" height="1.6" fill="#7eb6f0"></rect><rect x="726.938" y="143.029" width="1.4" height="1.6" fill="#7eb6f0"></rect><rect x="730.672" y="143.029" width="1.4" height="1.6" fill="#7eb6f0"></rect><rect x="734.406" y="143.029" width="1.4" height="1.6" fill="#fff5c6"></rect><rect x="726.938" y="147.629" width="1.4" height="1.6" fill="#1a2540" opacity="0.5"/><rect x="730.672" y="147.629" width="1.4" height="1.6" fill="#1a2540" opacity="0.5"/><rect x="734.406" y="147.629" width="1.4" height="1.6" fill="#1a2540" opacity="0.5"/><rect x="734.406" y="147.629" width="1.4" height="1.6" fill="#ffd47a" opacity="0"><animate attributeName="opacity" values="0;1;1;0" keyTimes="0;0.05;0.95;1" dur="39.328s" begin="20.172s;80.172s" fill="freeze"/></rect><rect x="726.938" y="152.229" width="1.4" height="1.6" fill="#1a2540" opacity="0.5"/><rect x="730.672" y="152.229" width="1.4" height="1.6" fill="#7eb6f0"></rect><rect x="734.406" y="152.229" width="1.4" height="1.6" fill="#fff5c6"></rect><rect x="726.938" y="156.829" width="1.4" height="1.6" fill="#7eb6f0"><animate attributeName="opacity" values="1;1;0;0;1;1" keyTimes="0;0.5;0.51;0.55;0.56;1" dur="3.024s" begin="-1.535s" repeatCount="indefinite"/></rect><rect x="730.672" y="156.829" width="1.4" height="1.6" fill="#7eb6f0"></rect><rect x="734.406" y="156.829" width="1.4" height="1.6" fill="#1a2540" opacity="0.5"/><rect x="734.406" y="156.829" width="1.4" height="1.6" fill="#ffd47a" opacity="0"><animate attributeName="opacity" values="0;1;1;0" keyTimes="0;0.05;0.95;1" dur="39.537s" begin="19.963s;79.963s" fill="freeze"/></rect><rect x="726.938" y="161.429" width="1.4" height="1.6" fill="#fff5c6"></rect><rect x="730.672" y="161.429" width="1.4" height="1.6" fill="#7eb6f0"></rect><rect x="734.406" y="161.429" width="1.4" height="1.6" fill="#1a2540" opacity="0.5"/><rect x="726.938" y="166.029" width="1.4" height="1.6" fill="#fff5c6"></rect><rect x="730.672" y="166.029" width="1.4" height="1.6" fill="#fff5c6"></rect><rect x="734.406" y="166.029" width="1.4" height="1.6" fill="#1a2540" opacity="0.5"/><rect x="772.377" y="155.857" width="13.536" height="19.143" fill="#0e1830"/><line x1="785.913" y1="155.857" x2="785.913" y2="175" stroke="#3d4a6a" stroke-width="0.4" opacity="0.6"/><rect x="774.711" y="159.857" width="1.4" height="1.6" fill="#1a2540" opacity="0.5"/><rect x="778.445" y="159.857" width="1.4" height="1.6" fill="#1a2540" opacity="0.5"/><rect x="782.179" y="159.857" width="1.4" height="1.6" fill="#1a2540" opacity="0.5"/><rect x="774.711" y="164.457" width="1.4" height="1.6" fill="#1a2540" opacity="0.5"/><rect x="778.445" y="164.457" width="1.4" height="1.6" fill="#fff5c6"></rect><rect x="782.179" y="164.457" width="1.4" height="1.6" fill="#1a2540" opacity="0.5"/><rect x="820.151" y="155.857" width="13.536" height="19.143" fill="#0e1830"/><line x1="833.687" y1="155.857" x2="833.687" y2="175" stroke="#3d4a6a" stroke-width="0.4" opacity="0.6"/><rect x="822.485" y="159.857" width="1.4" height="1.6" fill="#1a2540" opacity="0.5"/><rect x="826.219" y="159.857" width="1.4" height="1.6" fill="#fff5c6"></rect><rect x="829.953" y="159.857" width="1.4" height="1.6" fill="#1a2540" opacity="0.5"/><rect x="822.485" y="164.457" width="1.4" height="1.6" fill="#1a2540" opacity="0.5"/><rect x="826.219" y="164.457" width="1.4" height="1.6" fill="#1a2540" opacity="0.5"/><rect x="829.953" y="164.457" width="1.4" height="1.6" fill="#fff5c6"></rect></g><g><rect x="692.755" y="159.429" width="14.332" height="15.571" fill="#06101e"/><line x1="707.087" y1="159.429" x2="707.087" y2="175" stroke="#3d4a6a" stroke-width="0.4" opacity="0.6"/><rect x="740.528" y="127.286" width="14.332" height="47.714" fill="#06101e"/><line x1="754.86" y1="127.286" x2="754.86" y2="175" stroke="#3d4a6a" stroke-width="0.4" opacity="0.6"/><rect x="744.111" y="123.286" width="7.166" height="4" fill="#06101e"/><rect x="742.761" y="131.286" width="1.8" height="2" fill="#fff5c6"></rect><rect x="746.794" y="131.286" width="1.8" height="2" fill="#fff5c6"></rect><rect x="750.827" y="131.286" width="1.8" height="2" fill="#1a2540" opacity="0.5"/><rect x="742.761" y="136.286" width="1.8" height="2" fill="#fff5c6"></rect><rect x="746.794" y="136.286" width="1.8" height="2" fill="#ffd47a"></rect><rect x="750.827" y="136.286" width="1.8" height="2" fill="#1a2540" opacity="0.5"/><rect x="742.761" y="141.286" width="1.8" height="2" fill="#1a2540" opacity="0.5"/><rect x="746.794" y="141.286" width="1.8" height="2" fill="#1a2540" opacity="0.5"/><rect x="750.827" y="141.286" width="1.8" height="2" fill="#ffd47a"></rect><rect x="742.761" y="146.286" width="1.8" height="2" fill="#ffd47a"></rect><rect x="746.794" y="146.286" width="1.8" height="2" fill="#1a2540" opacity="0.5"/><rect x="750.827" y="146.286" width="1.8" height="2" fill="#1a2540" opacity="0.5"/><rect x="742.761" y="151.286" width="1.8" height="2" fill="#fff5c6"></rect><rect x="746.794" y="151.286" width="1.8" height="2" fill="#fff5c6"><animate attributeName="opacity" values="1;1;0;0;1;1" keyTimes="0;0.5;0.51;0.55;0.56;1" dur="3.414s" begin="-2.695s" repeatCount="indefinite"/></rect><rect x="750.827" y="151.286" width="1.8" height="2" fill="#ffd47a"></rect><rect x="742.761" y="156.286" width="1.8" height="2" fill="#1a2540" opacity="0.5"/><rect x="746.794" y="156.286" width="1.8" height="2" fill="#1a2540" opacity="0.5"/><rect x="750.827" y="156.286" width="1.8" height="2" fill="#1a2540" opacity="0.5"/><rect x="742.761" y="161.286" width="1.8" height="2" fill="#1a2540" opacity="0.5"/><rect x="746.794" y="161.286" width="1.8" height="2" fill="#fff5c6"></rect><rect x="750.827" y="161.286" width="1.8" height="2" fill="#1a2540" opacity="0.5"/><rect x="742.761" y="166.286" width="1.8" height="2" fill="#1a2540" opacity="0.5"/><rect x="746.794" y="166.286" width="1.8" height="2" fill="#7eb6f0"></rect><rect x="750.827" y="166.286" width="1.8" height="2" fill="#1a2540" opacity="0.5"/><rect x="750.827" y="166.286" width="1.8" height="2" fill="#ffd47a" opacity="0"><animate attributeName="opacity" values="0;1;1;0" keyTimes="0;0.05;0.95;1" dur="47.438s" begin="12.062s;72.062s" fill="freeze"/></rect><rect x="756.453" y="141.571" width="14.332" height="33.429" fill="#06101e"/><line x1="770.785" y1="141.571" x2="770.785" y2="175" stroke="#3d4a6a" stroke-width="0.4" opacity="0.6"/><rect x="758.686" y="145.571" width="1.8" height="2" fill="#1a2540" opacity="0.5"/><rect x="762.719" y="145.571" width="1.8" height="2" fill="#1a2540" opacity="0.5"/><rect x="766.752" y="145.571" width="1.8" height="2" fill="#fff5c6"></rect><rect x="758.686" y="150.571" width="1.8" height="2" fill="#1a2540" opacity="0.5"/><rect x="762.719" y="150.571" width="1.8" height="2" fill="#fff5c6"><animate attributeName="opacity" values="1;1;0;0;1;1" keyTimes="0;0.5;0.51;0.55;0.56;1" dur="3.534s" begin="-3.491s" repeatCount="indefinite"/></rect><rect x="766.752" y="150.571" width="1.8" height="2" fill="#1a2540" opacity="0.5"/><rect x="758.686" y="155.571" width="1.8" height="2" fill="#1a2540" opacity="0.5"/><rect x="762.719" y="155.571" width="1.8" height="2" fill="#1a2540" opacity="0.5"/><rect x="766.752" y="155.571" width="1.8" height="2" fill="#ffd47a"></rect><rect x="758.686" y="160.571" width="1.8" height="2" fill="#7eb6f0"></rect><rect x="762.719" y="160.571" width="1.8" height="2" fill="#fff5c6"></rect><rect x="766.752" y="160.571" width="1.8" height="2" fill="#ffd47a"></rect><rect x="758.686" y="165.571" width="1.8" height="2" fill="#1a2540" opacity="0.5"/><rect x="762.719" y="165.571" width="1.8" height="2" fill="#1a2540" opacity="0.5"/><rect x="766.752" y="165.571" width="1.8" height="2" fill="#7eb6f0"></rect><rect x="804.226" y="155.857" width="14.332" height="19.143" fill="#06101e"/><line x1="818.558" y1="155.857" x2="818.558" y2="175" stroke="#3d4a6a" stroke-width="0.4" opacity="0.6"/><rect x="806.459" y="159.857" width="1.8" height="2" fill="#1a2540" opacity="0.5"/><rect x="806.459" y="159.857" width="1.8" height="2" fill="#ffd47a" opacity="0"><animate attributeName="opacity" values="0;1;1;0" keyTimes="0;0.05;0.95;1" dur="45.99s" begin="13.51s;73.51s" fill="freeze"/></rect><rect x="810.492" y="159.857" width="1.8" height="2" fill="#1a2540" opacity="0.5"/><rect x="814.525" y="159.857" width="1.8" height="2" fill="#ffd47a"></rect><rect x="806.459" y="164.857" width="1.8" height="2" fill="#1a2540" opacity="0.5"/><rect x="810.492" y="164.857" width="1.8" height="2" fill="#1a2540" opacity="0.5"/><rect x="814.525" y="164.857" width="1.8" height="2" fill="#1a2540" opacity="0.5"/><rect x="814.525" y="164.857" width="1.8" height="2" fill="#ffd47a" opacity="0"><animate attributeName="opacity" values="0;1;1;0" keyTimes="0;0.05;0.95;1" dur="17.362s" begin="42.138s;102.138s" fill="freeze"/></rect><rect x="836.075" y="159.429" width="14.332" height="15.571" fill="#06101e"/><line x1="850.408" y1="159.429" x2="850.408" y2="175" stroke="#3d4a6a" stroke-width="0.4" opacity="0.6"/></g><g></g><g stroke="#7d8fa8" stroke-width="1" fill="none" opacity="0.65"><g><animateTransform attributeName="transform" type="translate" from="-30 0" to="890 -10" dur="14s" begin="0s" repeatCount="indefinite"/><path d="M0 50 l3 -2 l3 2 M6 50 l3 -2 l3 2"><animate attributeName="d" values="M0 50 l3 -2 l3 2 M6 50 l3 -2 l3 2;M0 50 l3 1 l3 -1 M6 50 l3 1 l3 -1;M0 50 l3 -2 l3 2 M6 50 l3 -2 l3 2" dur="0.5s" repeatCount="indefinite"/></path></g><g><animateTransform attributeName="transform" type="translate" from="-30 0" to="890 5" dur="17s" begin="-4s" repeatCount="indefinite"/><path d="M0 62 l3 -2 l3 2 M6 62 l3 -2 l3 2"><animate attributeName="d" values="M0 62 l3 -2 l3 2 M6 62 l3 -2 l3 2;M0 62 l3 1 l3 -1 M6 62 l3 1 l3 -1;M0 62 l3 -2 l3 2 M6 62 l3 -2 l3 2" dur="0.5s" repeatCount="indefinite"/></path></g><g><animateTransform attributeName="transform" type="translate" from="-30 0" to="890 -10" dur="20s" begin="-8s" repeatCount="indefinite"/><path d="M0 74 l3 -2 l3 2 M6 74 l3 -2 l3 2"><animate attributeName="d" values="M0 74 l3 -2 l3 2 M6 74 l3 -2 l3 2;M0 74 l3 1 l3 -1 M6 74 l3 1 l3 -1;M0 74 l3 -2 l3 2 M6 74 l3 -2 l3 2" dur="0.5s" repeatCount="indefinite"/></path></g></g><rect x="0" y="175" width="860" height="25" fill="#0a0e18"/><line x1="0" y1="175" x2="860" y2="175" stroke="#3d4a6a" stroke-width="0.5" opacity="0.5"/><g font-size="9" letter-spacing="2"><text x="14" y="18" fill="#c9d1d9" font-weight="900" letter-spacing="3">CITY OF COMMITS</text><text x="14" y="30" fill="#7d8fa8" font-size="7" letter-spacing="2">— github-contrib-runner —</text></g><g font-size="7" letter-spacing="1.5" font-family="ui-monospace,Menlo,monospace"><text x="846" y="18" text-anchor="end" fill="#c9d1d9" font-size="9" font-weight="700" letter-spacing="2">EST. 2025</text><text x="846" y="30" text-anchor="end" fill="#7d8fa8">pop. 11223</text><text x="14" y="192" fill="#7d8fa8">▲ TALLEST 10 commits</text><text x="430" y="192" text-anchor="middle" fill="#7d8fa8">⌂ 9 buildings</text><text x="846" y="192" text-anchor="end" fill="#7d8fa8">Σ 33 contributions</text></g></g></svg>